<svg width="611" height="395" viewBox="0 0 611 395" fill="none" xmlns="http://www.w3.org/2000/svg">
<path d="M31.5576 327.493C31.5576 364.314 52.7634 394.064 78.8441 394.064H126.131C152.211 394.064 173.173 364.07 173.173 327.493C173.173 290.671 151.968 260.921 125.887 260.921C125.399 260.921 125.156 260.921 124.668 260.921H78.8441C52.5197 260.921 31.5576 290.915 31.5576 327.493Z" fill="#442B2B"/>
<path d="M402.05 326.761C402.05 363.583 423.256 393.332 449.336 393.332H496.623C522.704 393.332 543.666 363.339 543.666 326.761C543.666 289.939 522.46 260.189 496.379 260.189C495.892 260.189 495.648 260.189 495.16 260.189H449.336C423.012 260.189 402.05 289.939 402.05 326.761Z" fill="#402B2B"/>
<path d="M28.3887 321.152L218.753 320.665L196.816 307.74L52.7631 307.984L28.3887 321.152Z" fill="#442B2B"/>
<path d="M-151.251 212.638L-151.007 334.808L3.52702 334.564L52.7635 307.984L196.817 307.74L241.178 334.077L555.609 333.345C560.728 333.345 564.871 329.199 564.871 324.079L564.628 211.175L-151.251 212.638Z" fill="#822626"/>
<path d="M185.604 240.438L432.274 239.95L431.786 16.3381C431.786 7.31557 424.474 0 415.212 0L184.873 0.487733L185.604 240.438Z" fill="#EF5F53"/>
<path d="M-199.025 241.413L185.36 240.681L184.873 0.731659L-183.182 1.46318C-192.2 1.46318 -199.513 8.7787 -199.513 18.045L-199.025 241.413Z" fill="#F39476"/>
<path d="M370.851 326.761C370.851 363.583 349.889 393.332 323.808 393.332H276.765V370.898C259.459 370.898 245.322 351.146 245.322 326.761C245.322 302.376 259.216 282.624 276.522 282.624V260.189H323.564C349.645 260.433 370.607 290.183 370.851 326.761Z" fill="#402B2B"/>
<path d="M237.766 327.249C237.766 357.486 255.072 381.871 276.521 381.628C297.971 381.628 315.033 357.242 315.033 327.005C315.033 296.767 297.727 272.382 276.277 272.626C255.072 272.626 237.766 297.011 237.766 327.249Z" fill="#4B2A2A"/>
<path opacity="0.32" d="M276.521 363.095C290.658 363.095 301.87 347.001 301.87 327.005C301.87 307.009 290.414 291.159 276.277 291.159C262.14 291.159 250.928 307.253 250.928 327.249C250.928 347.244 262.384 363.095 276.521 363.095ZM276.521 305.79C284.808 305.79 291.633 315.3 291.633 327.005C291.633 338.71 284.808 348.464 276.521 348.464C268.234 348.464 261.409 338.953 261.409 327.249C261.409 315.3 267.99 305.79 276.521 305.79Z" fill="#E14841"/>
<path d="M276.521 393.576C302.602 393.576 323.564 363.582 323.564 327.005C323.564 290.427 302.358 260.433 276.277 260.433C250.196 260.433 229.234 290.427 229.234 327.005C229.234 363.582 250.684 393.82 276.521 393.576ZM276.277 272.626C297.727 272.626 315.033 297.011 315.033 327.005C315.033 357.242 297.97 381.627 276.521 381.627C255.071 381.627 237.765 357.242 237.765 327.248C237.765 297.011 255.071 272.626 276.277 272.626Z" fill="#402B2B"/>
<path opacity="0.32" d="M269.94 327.005C269.94 321.884 272.865 317.982 276.278 317.982C279.69 317.982 282.615 322.128 282.859 327.005C282.859 332.126 279.934 336.027 276.522 336.027C272.865 336.271 269.94 332.126 269.94 327.005Z" fill="#E14841"/>
<path d="M0.114502 327.736C0.114502 364.558 -20.8476 394.308 -46.9283 394.308H-93.971V371.873C-111.277 371.873 -125.414 352.121 -125.414 327.736C-125.414 303.351 -111.521 283.599 -94.2147 283.599V261.165H-47.172C-21.0913 261.165 0.114502 290.915 0.114502 327.736Z" fill="black"/>
<path d="M595.584 144.604C595.584 145.579 596.315 146.311 597.046 146.555C598.996 147.043 606.308 147.042 608.502 146.311C609.477 146.067 610.452 145.336 610.452 144.116C611.183 124.608 611.183 105.588 610.452 87.5428C610.452 86.3236 609.477 85.592 608.502 85.3482C606.065 84.6166 597.534 84.1289 594.852 85.1043C593.877 85.3481 593.146 86.3236 593.146 87.299C592.659 105.832 593.39 124.852 595.584 144.604Z" fill="#CD2827"/>
<path d="M583.64 161.917C583.883 161.917 584.127 161.917 584.615 161.674L601.189 153.383C605.089 151.432 607.527 147.53 607.527 143.141L607.283 81.9342C607.283 79.4957 605.333 77.5449 602.895 77.5449H557.315C556.096 77.5449 555.365 78.5203 555.365 79.4957C555.365 80.7149 556.34 81.4464 557.315 81.4464H602.895C603.139 81.4464 603.139 81.6903 603.139 81.6903L603.383 142.897C603.383 145.823 601.677 148.262 599.239 149.481L582.665 157.772C581.69 158.26 581.202 159.479 581.69 160.454C582.177 161.674 582.908 161.917 583.64 161.917Z" fill="#822626"/>
<path d="M218.753 239.95C218.753 239.95 225.091 239.95 234.841 239.95H273.596C302.602 239.95 309.427 254.337 327.22 289.695L383.525 289.451C383.525 289.451 383.525 285.306 383.525 278.234L598.508 277.747C599.483 259.946 601.433 223.856 601.433 189.716C601.433 188.497 601.433 187.522 601.433 186.302C601.433 176.548 599.727 165.819 596.802 155.09C585.346 113.147 556.34 68.5223 544.397 52.1842C540.497 46.8195 537.084 42.1864 534.159 38.0409C525.872 27.0676 520.266 21.459 509.785 21.459L249.222 22.1906C243.859 22.1906 238.984 25.8483 237.522 30.9692C215.097 113.391 218.51 176.061 218.753 239.95ZM438.368 51.2088C438.124 49.9896 439.099 49.0142 440.318 49.0142L519.535 48.7703C524.166 48.7703 528.797 51.2089 531.722 55.3543C562.677 97.5406 575.108 136.069 579.74 158.26L584.615 181.669C585.346 185.083 583.152 187.766 579.74 187.766H560.484C557.315 187.766 553.903 186.302 551.465 183.864L511.979 146.067C507.591 141.922 501.741 139.483 496.135 139.483H448.849L438.368 51.2088Z" fill="#CD2827"/>
<path d="M397.418 155.821C399.124 163.624 401.074 171.671 402.78 180.206C403.999 186.059 409.118 190.204 414.968 190.448C491.991 193.13 555.852 193.374 601.432 189.96C601.432 188.741 601.432 187.766 601.432 186.546C601.432 176.792 599.726 166.063 596.801 155.333L397.418 155.821Z" fill="#822626"/>
<path opacity="0.75" d="M255.072 49.2581L334.289 49.0142C338.92 49.0142 343.064 51.4527 345.257 55.5982C367.438 97.7845 372.069 136.313 372.069 158.503V181.913C372.069 185.327 369.388 188.01 365.976 188.01H346.72C343.551 188.01 340.382 186.546 338.432 184.108L306.746 146.311C303.089 142.165 297.971 139.483 292.365 139.727H245.078L252.634 51.4527C252.634 50.2334 253.609 49.2581 255.072 49.2581Z" fill="#402B2B"/>
<path d="M218.753 239.95C218.753 239.95 225.091 239.95 234.841 239.95H273.596C302.602 239.95 309.427 254.337 327.22 289.695L383.525 289.451C383.525 289.451 383.525 285.306 383.525 278.234L598.508 277.747C599.483 259.946 601.433 223.856 601.433 189.716C555.853 193.13 491.748 193.13 414.968 190.204C409.118 189.96 404 185.815 402.781 179.962C401.075 171.428 399.125 163.137 397.418 155.577C386.937 110.952 375.481 79.0079 360.369 44.381C359.151 41.6987 361.1 38.5286 364.025 38.5286L534.159 38.0409C525.872 27.0676 520.266 21.459 509.785 21.459L249.222 22.1906C243.859 22.1906 238.984 25.8483 237.522 30.9692C215.097 113.391 218.51 176.061 218.753 239.95ZM244.834 139.727L252.39 51.4527C252.39 50.2335 253.609 49.2581 254.828 49.2581L334.045 49.0142C338.676 49.0142 342.82 51.4527 345.013 55.5982C367.194 97.7845 371.825 136.313 371.825 158.503V181.913C371.825 185.327 369.144 188.009 365.732 188.009H346.476C343.307 188.009 340.138 186.546 338.188 184.108L306.502 146.311C302.845 142.165 297.727 139.483 292.121 139.727H244.834Z" fill="url(#paint0_linear)"/>
<path d="M228.26 233.61C228.26 237.267 231.185 239.95 234.841 239.95H273.596C302.602 239.95 309.427 254.337 327.22 289.695L383.525 289.452C383.525 289.452 383.525 285.306 383.525 278.234L383.282 179.475C383.282 130.461 374.507 99.4915 351.351 50.4774C347.939 43.1619 340.383 38.5287 332.339 38.5287L248.491 38.7725C246.541 38.7725 245.078 39.9918 244.591 41.6988C228.016 104.612 228.016 207.03 228.26 233.61ZM244.835 139.727L252.391 51.4528C252.391 50.2336 253.609 49.2582 254.828 49.2582L334.045 49.0143C338.676 49.0143 342.82 51.4528 345.014 55.5983C367.194 97.7846 371.826 136.313 371.826 158.503V181.913C371.826 185.327 369.144 188.009 365.732 188.009H346.476C343.307 188.009 340.139 186.546 338.189 184.108L306.502 146.311C302.846 142.165 297.727 139.483 292.121 139.727H244.835Z" fill="url(#paint1_linear)"/>
<path d="M255.559 52.1842L334.289 51.9404C337.701 51.9404 340.87 53.8912 342.576 56.8175C365.488 100.467 369.144 139.239 369.144 158.26V181.669C369.144 183.376 367.682 184.839 365.976 184.839H346.72C344.282 184.839 342.089 183.864 340.626 182.157L308.939 144.36C304.796 139.483 298.702 136.557 292.121 136.557H248.247L255.559 52.1842ZM255.072 49.2581C253.853 49.2581 252.634 50.2334 252.634 51.4527L245.078 139.727H292.365C297.971 139.727 303.089 142.165 306.746 146.311L338.432 184.108C340.382 186.546 343.551 188.01 346.72 188.01H365.976C369.388 188.01 372.069 185.327 372.069 181.913V158.503C372.069 136.313 367.438 97.7845 345.257 55.5982C343.064 51.4527 338.92 49.0142 334.289 49.0142L255.072 49.2581Z" fill="#822626"/>
<path opacity="0.4" d="M383.281 231.659V278.235L468.348 277.991C467.373 265.798 465.18 254.093 461.523 243.12C460.061 238.731 456.405 235.56 451.774 234.829C433.005 232.634 409.118 231.659 383.281 231.659ZM555.365 277.991H597.533C598.264 267.749 598.995 251.167 599.727 232.39C589.489 232.878 579.983 233.853 571.452 235.073C566.821 235.804 563.165 238.974 561.703 243.364C558.29 254.093 556.34 265.798 555.365 277.991Z" fill="#CD2827"/>
<path d="M383.525 325.054L580.715 324.566C594.121 324.566 605.089 313.593 605.089 300.181V296.036C605.089 292.134 601.921 289.208 598.264 289.208L383.769 289.695L383.525 325.054Z" fill="#EE4D47"/>
<path d="M347.207 325.054H383.525V289.696H327.707L333.801 314.325C335.263 320.665 340.869 325.054 347.207 325.054Z" fill="#CD2827"/>
<path d="M260.434 196.057C268.721 196.301 284.808 198.008 284.808 203.86C284.808 209.712 270.671 211.663 259.215 211.663C247.759 211.663 246.54 205.323 245.565 202.641C244.834 199.958 244.103 195.813 260.434 196.057Z" fill="#CD2827"/>
<path d="M261.165 202.397C257.265 202.397 253.122 201.177 251.172 199.227C252.634 198.495 254.828 197.764 258.241 197.764C264.578 197.764 274.815 198.495 280.178 200.934C279.446 201.421 277.496 202.397 274.328 202.397C270.428 202.397 265.309 202.397 261.165 202.397Z" fill="#9B1616"/>
<path d="M277.496 207.03C278.959 207.03 279.69 207.274 279.934 207.518C275.546 209.468 267.503 210.2 263.603 210.2C257.997 210.2 254.097 210.2 252.878 208.981C253.853 208.249 256.047 207.03 258.24 207.03C261.165 207.274 275.546 207.03 277.496 207.03Z" fill="#9B1616"/>
<path d="M383.525 278.478C383.525 285.55 383.525 289.695 383.525 289.695L597.777 289.208C597.777 289.208 598.021 285.062 598.508 277.991L383.525 278.478Z" fill="#822626"/>
<g opacity="0.2">
<path d="M475.904 229.22V275.796L547.809 275.552V228.976C547.809 223.368 542.69 218.979 536.353 218.979H487.117C481.023 219.222 475.904 223.856 475.904 229.22Z" fill="#822626"/>
</g>
<path d="M571.939 274.089H587.051C590.951 274.089 594.364 270.919 594.364 266.773V259.214C594.364 255.312 591.195 251.899 587.051 251.899H571.939C568.039 251.899 564.627 255.069 564.627 259.214V266.773C564.627 270.919 568.039 274.089 571.939 274.089Z" fill="white"/>
<path d="M428.861 274.577H443.973C447.873 274.577 451.286 271.407 451.286 267.261V259.702C451.286 255.8 448.117 252.386 443.973 252.386H428.861C424.961 252.386 421.549 255.556 421.549 259.702V267.261C421.549 271.163 424.718 274.577 428.861 274.577Z" fill="white"/>
<path d="M331.363 145.092C331.363 146.067 332.094 146.799 332.825 147.042C342.332 148.018 352.325 148.018 362.562 146.799C363.781 146.555 364.512 145.823 364.512 144.604C365.244 125.096 365.244 106.075 364.512 88.0305C364.512 86.8112 363.537 86.0797 362.562 85.8358C352.081 84.6166 341.6 84.6166 330.632 85.8358C329.657 86.0797 328.926 87.0551 328.926 88.0305C328.194 106.319 329.169 125.34 331.363 145.092Z" fill="#CD2827"/>
<path d="M369.143 162.405C369.874 162.405 370.605 161.917 370.849 161.186C371.337 160.211 370.849 158.991 369.874 158.504L353.3 150.456C350.862 149.237 349.156 146.555 349.156 143.872L348.912 82.6657C348.912 82.4218 349.156 82.4219 349.156 82.4219H359.393C360.612 82.4219 361.343 81.4464 361.343 80.471C361.343 79.2517 360.368 78.5202 359.393 78.5202H349.156C346.718 78.5202 344.769 80.471 344.769 82.9095L345.012 144.116C345.012 148.506 347.45 152.407 351.35 154.358L367.924 162.405C368.656 162.405 368.899 162.405 369.143 162.405Z" fill="#822626"/>
<path d="M480.93 327.942L549.909 327.792L549.864 307.065L480.885 307.215L480.93 327.942Z" fill="white"/>
<path opacity="0.8" d="M359.9 45.1184C375.012 79.7453 386.225 111.69 396.949 156.315L596.333 155.827C584.877 113.884 555.871 69.2596 543.928 52.9216C540.028 47.5569 536.615 42.9237 533.69 38.7782L363.556 39.266C360.631 39.5098 358.681 42.436 359.9 45.1184Z" fill="#8E6362"/>
<defs>
<linearGradient id="paint0_linear" x1="409.931" y1="-40.6307" x2="409.931" y2="297.04" gradientUnits="userSpaceOnUse">
<stop stop-color="#F4A984"/>
<stop offset="1" stop-color="#EE4D47"/>
</linearGradient>
<linearGradient id="paint1_linear" x1="305.868" y1="-288.354" x2="305.868" y2="296.573" gradientUnits="userSpaceOnUse">
<stop stop-color="#F4A984"/>
<stop offset="0.560769" stop-color="#EE4D47"/>
</linearGradient>
</defs>
</svg>
